<?xml version="1.0" standalone="no"?>
<!DOCTYPE svg PUBLIC "-//W3C//DTD SVG 20010904//EN"
 "http://www.w3.org/TR/2001/REC-SVG-20010904/DTD/svg10.dtd">
<svg version="1.0" xmlns="http://www.w3.org/2000/svg"
 width="224.000000pt" height="225.000000pt" viewBox="0 0 224.000000 225.000000"
 preserveAspectRatio="xMidYMid meet">

<g transform="translate(0.000000,225.000000) scale(0.100000,-0.100000)"
fill="#000000" stroke="none">
<path d="M797 1796 c-4 -10 0 -12 14 -9 10 3 16 9 13 14 -8 13 -21 11 -27 -5z"/>
<path d="M1247 1755 c-4 -8 -2 -17 4 -20 5 -4 8 -1 7 6 -2 7 10 16 27 20 l30
7 -31 1 c-20 1 -34 -5 -37 -14z"/>
<path d="M1210 1750 c0 -5 5 -10 10 -10 6 0 10 5 10 10 0 6 -4 10 -10 10 -5 0
-10 -4 -10 -10z"/>
<path d="M1448 1740 c47 -29 69 -26 38 6 -8 8 -27 14 -43 14 l-28 0 33 -20z"/>
<path d="M820 1731 c0 -5 14 -11 30 -13 35 -5 41 7 8 16 -31 8 -38 7 -38 -3z"/>
<path d="M1145 1710 c-4 -6 3 -10 14 -10 25 0 27 6 6 13 -8 4 -17 2 -20 -3z"/>
<path d="M1000 1700 c-13 -8 -13 -10 2 -10 9 0 20 5 23 10 8 13 -5 13 -25 0z"/>
<path d="M1543 1694 c-3 -8 1 -22 9 -30 13 -13 14 -11 10 16 -5 34 -10 37 -19
14z"/>
<path d="M1103 1693 c-13 -2 -23 -9 -23 -14 0 -14 26 -11 40 6 7 8 11 14 9 14
-2 -1 -14 -4 -26 -6z"/>
<path d="M945 1680 c-3 -6 1 -7 9 -4 18 7 21 14 7 14 -6 0 -13 -4 -16 -10z"/>
<path d="M751 1653 c-10 -22 -10 -25 2 -15 8 7 16 10 18 7 3 -2 5 5 5 15 0 28
-11 25 -25 -7z"/>
<path d="M965 1660 c-3 -5 -1 -10 4 -10 6 0 11 5 11 10 0 6 -2 10 -4 10 -3 0
-8 -4 -11 -10z"/>
<path d="M1030 1624 c0 -8 5 -12 10 -9 6 3 10 10 10 16 0 5 -4 9 -10 9 -5 0
-10 -7 -10 -16z"/>
<path d="M1174 1616 c-10 -8 -16 -18 -12 -22 4 -4 15 -1 24 6 12 11 20 11 34
2 15 -9 19 -8 24 5 4 9 4 18 1 21 -3 3 -5 -1 -5 -8 0 -11 -3 -11 -12 -2 -16
16 -30 15 -54 -2z"/>
<path d="M1460 1621 c0 -5 7 -15 17 -22 15 -13 15 -12 4 9 -12 23 -21 28 -21
13z"/>
<path d="M1100 1602 c0 -6 -8 -13 -17 -15 -16 -4 -16 -5 -1 -6 18 -1 34 16 24
26 -3 4 -6 1 -6 -5z"/>
<path d="M1280 1600 c0 -5 5 -10 11 -10 5 0 7 5 4 10 -3 6 -8 10 -11 10 -2 0
-4 -4 -4 -10z"/>
<path d="M857 1579 c4 -16 8 -17 14 -7 13 19 11 28 -5 28 -9 0 -12 -7 -9 -21z"/>
<path d="M985 1590 c-3 -5 -1 -10 4 -10 6 0 11 5 11 10 0 6 -2 10 -4 10 -3 0
-8 -4 -11 -10z"/>
<path d="M1385 1590 c-8 -13 5 -13 25 0 13 8 13 10 -2 10 -9 0 -20 -4 -23 -10z"/>
<path d="M1438 1576 c-3 -14 0 -27 6 -29 7 -3 13 7 14 24 3 35 -14 39 -20 5z"/>
<path d="M922 1570 c-11 -17 -10 -20 7 -20 19 0 35 23 24 34 -10 10 -18 7 -31
-14z"/>
<path d="M1180 1571 c0 -6 4 -13 10 -16 6 -3 7 1 4 9 -7 18 -14 21 -14 7z"/>
<path d="M1398 1563 c7 -3 16 -2 19 1 4 3 -2 6 -13 5 -11 0 -14 -3 -6 -6z"/>
<path d="M1505 1550 c3 -5 11 -10 16 -10 6 0 7 5 4 10 -3 6 -11 10 -16 10 -6
0 -7 -4 -4 -10z"/>
<path d="M1040 1542 c0 -5 11 -14 25 -20 23 -11 24 -10 13 8 -13 20 -38 28
-38 12z"/>
<path d="M1498 1523 c-2 -4 6 -18 19 -30 29 -28 36 -15 7 15 -12 13 -24 19
-26 15z"/>
<path d="M1538 1513 c7 -3 16 -2 19 1 4 3 -2 6 -13 5 -11 0 -14 -3 -6 -6z"/>
<path d="M1428 1503 c7 -3 16 -2 19 1 4 3 -2 6 -13 5 -11 0 -14 -3 -6 -6z"/>
<path d="M1310 1479 c0 -5 5 -7 10 -4 6 3 10 8 10 11 0 2 -4 4 -10 4 -5 0 -10
-5 -10 -11z"/>
<path d="M1371 1463 c-1 -12 -5 -23 -10 -25 -5 -1 2 -12 17 -22 15 -11 22 -14
16 -5 -14 22 -13 38 1 33 7 -3 16 -1 20 5 3 7 -2 11 -14 11 -10 0 -22 6 -24
13 -3 6 -6 2 -6 -10z"/>
<path d="M1500 1470 c0 -5 5 -10 10 -10 6 0 10 5 10 10 0 6 -4 10 -10 10 -5 0
-10 -4 -10 -10z"/>
<path d="M856 1463 c-16 -16 -2 -28 35 -30 40 -1 40 -1 15 12 -14 8 -30 16
-35 19 -4 3 -11 3 -15 -1z"/>
<path d="M1237 1456 c-4 -10 0 -12 14 -9 10 3 16 9 13 14 -8 13 -21 11 -27 -5z"/>
<path d="M1340 1460 c0 -5 5 -10 10 -10 6 0 10 5 10 10 0 6 -4 10 -10 10 -5 0
-10 -4 -10 -10z"/>
<path d="M1320 1445 c0 -8 4 -15 10 -15 5 0 7 7 4 15 -4 8 -8 15 -10 15 -2 0
-4 -7 -4 -15z"/>
<path d="M1477 1433 c-3 -15 -5 -29 -4 -29 1 -1 17 1 35 3 24 4 32 10 30 22
-2 9 -11 15 -22 13 -11 -2 -22 2 -26 8 -4 7 -9 1 -13 -17z"/>
<path d="M715 1411 c-16 -10 -29 -25 -27 -33 1 -10 -8 -18 -24 -22 -14 -4 -24
-10 -21 -13 8 -7 67 17 67 27 0 5 -6 11 -12 14 -7 3 -3 3 8 1 14 -4 24 0 28
10 3 8 12 15 21 15 8 0 15 5 15 10 0 15 -21 11 -55 -9z"/>
<path d="M1196 1418 c3 -5 10 -6 15 -3 13 9 11 12 -6 12 -8 0 -12 -4 -9 -9z"/>
<path d="M1231 1417 c-6 -8 -8 -17 -4 -20 12 -12 19 -7 19 13 0 24 0 24 -15 7z"/>
<path d="M1275 1421 c-3 -5 -1 -12 4 -15 5 -3 11 1 15 9 6 16 -9 21 -19 6z"/>
<path d="M1410 1403 c0 -22 2 -25 10 -13 13 20 13 40 0 40 -5 0 -10 -12 -10
-27z"/>
<path d="M1546 1413 c-8 -21 10 -41 24 -27 11 11 3 44 -10 44 -4 0 -11 -8 -14
-17z"/>
<path d="M800 1405 c0 -8 4 -15 10 -15 5 0 7 7 4 15 -4 8 -8 15 -10 15 -2 0
-4 -7 -4 -15z"/>
<path d="M847 1413 c-8 -12 30 -29 40 -19 4 3 -1 6 -9 6 -9 0 -18 5 -20 12 -3
9 -6 9 -11 1z"/>
<path d="M925 1400 c3 -5 11 -10 16 -10 6 0 7 5 4 10 -3 6 -11 10 -16 10 -6 0
-7 -4 -4 -10z"/>
<path d="M970 1393 c0 -6 10 -17 23 -26 21 -13 23 -13 23 4 0 11 -6 17 -12 15
-6 -2 -17 1 -23 7 -8 8 -11 8 -11 0z"/>
<path d="M1065 1391 c-40 -7 -40 -7 -10 -13 17 -3 50 -7 75 -8 24 0 51 -6 60
-13 8 -6 4 1 -9 16 -25 28 -39 30 -116 18z"/>
<path d="M1023 1358 c1 -7 -3 -12 -10 -13 -15 0 -40 -25 -27 -26 5 -1 41 -2
79 -3 56 -2 75 2 95 17 19 15 20 18 5 12 -31 -12 -125 -18 -125 -8 0 5 5 14
12 21 9 9 7 12 -10 12 -12 0 -21 -5 -19 -12z"/>
<path d="M1350 1354 c0 -8 5 -12 10 -9 6 3 10 10 10 16 0 5 -4 9 -10 9 -5 0
-10 -7 -10 -16z"/>
<path d="M1561 1357 c0 -10 -6 -15 -11 -12 -6 3 -17 -1 -25 -9 -14 -14 -13
-17 10 -32 14 -9 28 -14 32 -10 3 3 1 6 -5 6 -13 0 -12 21 1 31 5 4 7 15 4 25
-4 18 -5 18 -6 1z"/>
<path d="M848 1343 c7 -3 16 -2 19 1 4 3 -2 6 -13 5 -11 0 -14 -3 -6 -6z"/>
<path d="M962 1338 c-15 -15 -16 -32 -2 -23 6 3 10 1 10 -4 0 -6 5 -11 11 -11
8 0 8 4 0 13 -8 10 -7 17 1 25 7 7 8 12 2 12 -5 0 -15 -5 -22 -12z"/>
<path d="M1227 1333 c-15 -14 -5 -21 29 -21 20 0 32 4 28 8 -14 12 -50 21 -57
13z"/>
<path d="M726 1323 c-4 -5 -26 -16 -49 -25 l-42 -17 43 0 c23 -1 42 3 42 8 0
5 7 17 16 25 8 9 11 16 6 16 -5 0 -12 -3 -16 -7z"/>
<path d="M773 1323 c-17 -6 -17 -23 0 -23 8 0 14 7 14 15 0 8 -1 15 -1 14 -1
0 -7 -3 -13 -6z"/>
<path d="M1305 1320 c3 -5 10 -10 16 -10 5 0 9 5 9 10 0 6 -7 10 -16 10 -8 0
-12 -4 -9 -10z"/>
<path d="M1362 1310 c0 -14 2 -19 5 -12 2 6 2 18 0 25 -3 6 -5 1 -5 -13z"/>
<path d="M930 1289 c-20 -5 -21 -7 -5 -8 12 -1 16 -4 9 -11 -16 -16 -131 -25
-148 -11 -10 8 -16 9 -21 1 -4 -6 -12 -10 -18 -9 -7 1 -19 0 -27 -4 -8 -3 -37
-7 -63 -10 -26 -3 -51 -7 -54 -11 -4 -3 -7 -25 -7 -48 -1 -38 1 -43 21 -42 12
1 24 -4 26 -11 3 -6 -1 -12 -9 -12 -8 0 -14 5 -15 11 0 6 -4 2 -9 -9 -12 -28
-12 -93 0 -100 6 -3 10 -15 10 -25 0 -17 2 -18 28 -4 15 7 44 14 65 14 23 0
36 4 32 10 -7 11 -8 11 63 15 53 3 66 -6 35 -24 -10 -6 -13 -11 -8 -11 6 -1 1
-5 -10 -10 -17 -7 -17 -9 -3 -9 10 -1 31 13 49 30 37 36 48 29 41 -28 -3 -31
-9 -43 -21 -44 -9 0 -1 -7 17 -15 24 -11 32 -20 32 -40 0 -24 23 -52 80 -98
18 -14 22 -15 17 -3 -6 17 18 31 36 21 7 -4 22 -16 34 -27 32 -29 37 -17 8 17
-20 23 -22 32 -14 49 8 14 13 16 19 7 4 -7 13 -9 20 -5 8 5 11 4 6 -3 -3 -6 2
-17 12 -24 10 -7 24 -23 31 -35 15 -29 43 -44 62 -33 11 7 7 12 -18 21 -35 12
-45 32 -15 28 9 -1 25 2 36 6 11 5 26 3 38 -4 16 -10 23 -9 37 3 10 9 22 16
28 16 5 0 17 8 27 19 16 17 15 18 -34 13 -27 -2 -50 -1 -50 4 0 13 18 39 27
39 4 0 19 8 31 17 l24 16 -23 13 c-17 9 -24 9 -27 0 -5 -16 -37 -14 -52 4 -10
12 -9 16 4 21 12 5 14 10 6 19 -19 23 5 25 61 4 40 -14 49 -15 35 -4 -11 8
-25 15 -32 15 -12 0 -28 29 -21 37 9 8 36 -10 30 -20 -4 -6 0 -8 11 -4 11 5
15 3 10 -5 -5 -7 1 -9 20 -6 17 4 26 1 27 -8 3 -27 4 -31 21 -47 15 -15 17
-15 23 1 3 9 1 18 -4 20 -6 2 -11 19 -11 38 0 38 11 42 57 19 27 -13 33 -13
62 1 30 15 32 19 31 67 -1 29 2 73 6 99 6 42 4 47 -17 59 -13 7 -30 18 -37 26
-16 15 -32 17 -32 4 0 -5 8 -12 18 -14 13 -4 11 -5 -5 -6 -13 0 -23 4 -23 9 0
6 -5 10 -11 10 -5 0 -7 -5 -4 -10 4 -7 -5 -9 -26 -5 -19 3 -35 8 -37 9 -2 2
-18 0 -37 -4 -26 -6 -32 -5 -28 6 3 8 0 14 -6 14 -6 0 -11 -4 -11 -8 0 -4 -16
-9 -36 -10 -25 -2 -40 3 -49 14 -7 11 -30 19 -57 21 -39 4 -46 1 -51 -16 -4
-16 -13 -21 -36 -21 -17 0 -31 5 -31 10 0 6 7 10 16 10 8 0 13 4 9 9 -7 12
-45 10 -45 -3 0 -5 -3 -6 -7 -3 -3 4 -11 3 -17 -2 -25 -19 -61 -20 -81 -2 -14
13 -27 16 -45 10z m437 -91 c-2 -7 4 -23 14 -36 22 -29 12 -66 -20 -70 -53 -8
-67 45 -23 89 30 32 36 35 29 17z m-571 -45 c12 -28 18 -33 25 -22 7 12 9 12
9 -1 -1 -8 -7 -24 -16 -35 -14 -19 -15 -19 -20 3 -4 12 -11 22 -16 22 -6 0 -8
-9 -5 -20 3 -13 0 -20 -10 -20 -8 0 -12 4 -9 9 3 5 7 29 7 55 3 55 15 59 35 9z
m66 -4 c-6 -62 12 -68 38 -12 l22 48 17 -45 c12 -31 14 -47 7 -52 -6 -4 -13 0
-16 8 -7 20 -21 20 -32 0 -5 -9 -21 -16 -36 -16 -25 0 -27 3 -26 43 0 24 4 49
8 55 14 23 21 11 18 -29z m176 11 c5 -13 3 -13 -11 -1 -25 20 -49 6 -45 -26 3
-24 8 -28 35 -28 28 -1 34 4 48 40 l16 40 24 -45 c14 -27 19 -47 13 -49 -6 -2
-15 4 -20 13 -11 20 -42 22 -35 2 5 -12 -4 -14 -40 -13 -56 2 -73 22 -55 62 9
20 18 26 39 23 14 -2 29 -10 31 -18z m161 6 c9 -10 9 -16 1 -21 -8 -5 -6 -14
5 -31 8 -13 11 -24 5 -24 -5 0 -15 9 -22 20 -7 11 -17 20 -22 20 -4 0 -6 -9
-3 -20 3 -12 0 -20 -8 -20 -8 0 -14 16 -17 45 -3 43 -2 45 23 45 15 0 32 -6
38 -14z m86 -24 c1 -18 7 -37 15 -42 13 -8 13 -10 -1 -10 -9 0 -24 10 -33 23
l-17 22 5 -22 c2 -15 -1 -23 -9 -23 -8 0 -14 17 -17 45 -3 46 -3 46 27 43 27
-3 30 -7 30 -36z m160 6 l27 -33 -5 28 c-2 15 0 27 4 27 5 0 9 -19 9 -42 l0
-42 -31 30 -32 29 5 -27 c3 -17 1 -28 -6 -28 -6 0 -11 19 -11 45 0 25 3 45 7
45 4 0 19 -15 33 -32z m147 -7 c8 12 9 12 6 0 -6 -22 -28 -25 -27 -4 0 12 2
14 6 4 5 -11 7 -11 15 0z m-542 -121 c0 -6 -20 -20 -45 -32 -25 -12 -45 -26
-45 -30 0 -4 -8 -8 -17 -8 -14 1 -12 5 10 21 15 11 27 28 27 37 0 14 2 14 9 3
9 -14 51 -7 51 10 0 5 2 9 5 9 3 0 5 -5 5 -10z m47 4 c-3 -3 -12 -4 -19 -1 -8
3 -5 6 6 6 11 1 17 -2 13 -5z m149 -6 c28 -13 46 -58 23 -58 -5 0 -7 5 -3 12
5 8 3 8 -7 2 -8 -5 -25 -9 -39 -10 -109 -2 -120 -4 -120 -20 0 -8 -5 -12 -10
-9 -6 4 -8 10 -6 14 3 4 -5 8 -16 8 -30 3 -33 11 -14 32 15 17 28 19 94 16 71
-4 73 -3 24 4 -29 5 -56 12 -59 15 -12 12 105 6 133 -6z m64 8 c0 -3 -4 -8
-10 -11 -5 -3 -10 -1 -10 4 0 6 5 11 10 11 6 0 10 -2 10 -4z m111 -9 c-7 -7
-14 -8 -21 -1 -6 6 -2 10 12 11 16 2 18 -1 9 -10z m-423 -83 c-16 -8 -28 -20
-28 -26 0 -6 8 -4 18 5 24 21 56 22 73 1 14 -17 21 -86 7 -78 -4 3 -16 1 -25
-4 -30 -16 -61 3 -72 45 -10 34 -9 40 10 56 12 9 26 17 33 17 6 -1 -1 -8 -16
-16z m229 10 c-3 -3 -12 -4 -19 -1 -8 3 -5 6 6 6 11 1 17 -2 13 -5z m44 -21
c13 -14 18 -23 12 -19 -9 5 -13 -1 -13 -21 0 -16 -6 -35 -12 -42 -11 -12 -9
-13 7 -7 16 5 16 3 -4 -13 -22 -17 -59 -20 -82 -6 -8 6 -9 114 0 113 31 -3 71
4 66 12 -11 18 1 10 26 -17z m-317 2 c-4 -8 -8 -15 -10 -15 -2 0 -4 7 -4 15 0
8 4 15 10 15 5 0 7 -7 4 -15z m135 -19 c-3 -3 -11 5 -18 17 -13 21 -12 21 5 5
10 -10 16 -20 13 -22z m52 6 c-9 -32 -27 -39 -34 -12 -3 11 -1 20 5 20 5 0 7
4 4 8 -2 4 4 8 14 9 15 1 17 -3 11 -25z m196 -88 c-3 -3 -12 -4 -19 -1 -8 3
-5 6 6 6 11 1 17 -2 13 -5z m-297 -18 c-4 -4 -21 -4 -37 2 -28 11 -28 11 9 9
21 -1 33 -6 28 -11z"/>
<path d="M1337 1163 c-13 -12 -7 -54 9 -60 25 -10 39 12 26 42 -12 25 -23 31
-35 18z"/>
<path d="M1070 1140 c0 -5 5 -10 11 -10 5 0 7 5 4 10 -3 6 -8 10 -11 10 -2 0
-4 -4 -4 -10z"/>
<path d="M1160 1155 c0 -9 5 -15 11 -13 6 2 11 8 11 13 0 5 -5 11 -11 13 -6 2
-11 -4 -11 -13z"/>
<path d="M1250 1155 c0 -8 5 -15 10 -15 6 0 10 7 10 15 0 8 -4 15 -10 15 -5 0
-10 -7 -10 -15z"/>
<path d="M1002 883 c-19 -4 -20 -6 -8 -19 20 -19 56 -18 56 2 0 14 -3 14 -15
4 -13 -11 -14 -10 -9 4 3 9 5 15 3 15 -2 -1 -14 -4 -27 -6z"/>
<path d="M1194 874 c3 -9 6 -18 6 -20 0 -2 11 -4 25 -4 39 0 34 34 -6 37 -24
2 -30 -1 -25 -13z"/>
<path d="M1180 829 c0 -9 60 -17 65 -8 3 4 -11 9 -30 11 -19 2 -35 1 -35 -3z"/>
<path d="M990 1290 c-11 -7 -7 -10 18 -10 20 0 31 4 27 10 -8 13 -26 13 -45 0z"/>
<path d="M1290 1288 c0 -11 12 -10 30 2 12 7 10 9 -8 7 -12 0 -22 -5 -22 -9z"/>
<path d="M740 1280 c-13 -8 -12 -10 3 -10 9 0 17 5 17 10 0 12 -1 12 -20 0z"/>
<path d="M685 950 l-20 -9 20 0 c11 0 27 4 35 9 13 9 13 10 0 9 -8 0 -24 -4
-35 -9z"/>
<path d="M1572 910 c0 -14 2 -19 5 -12 2 6 2 18 0 25 -3 6 -5 1 -5 -13z"/>
<path d="M716 901 c-16 -17 -16 -19 3 -24 11 -3 21 -1 23 4 2 4 18 9 36 11 18
1 32 8 32 15 0 16 -3 16 -47 -2 -19 -8 -38 -15 -40 -15 -3 0 0 7 7 15 18 22 6
18 -14 -4z"/>
<path d="M1413 897 c9 -8 17 -19 17 -26 0 -17 17 -13 24 5 8 21 8 21 -29 29
-27 6 -28 5 -12 -8z"/>
<path d="M1466 885 c-3 -9 0 -15 8 -15 7 0 13 7 13 15 0 8 -4 15 -8 15 -4 0
-9 -7 -13 -15z"/>
<path d="M1516 865 c4 -8 12 -15 20 -15 20 0 17 7 -6 20 -16 9 -18 8 -14 -5z"/>
<path d="M810 850 c-23 -8 -22 -8 10 -8 19 0 44 -3 55 -6 13 -5 11 -2 -5 8
-28 17 -26 17 -60 6z"/>
<path d="M905 820 c3 -5 11 -10 16 -10 6 0 7 5 4 10 -3 6 -11 10 -16 10 -6 0
-7 -4 -4 -10z"/>
<path d="M1543 783 c-48 -6 -61 -28 -32 -52 26 -20 40 -12 32 19 -4 14 0 17
21 13 19 -4 26 -1 26 11 0 9 -3 15 -7 14 -5 0 -22 -3 -40 -5z"/>
<path d="M1258 773 c7 -3 16 -2 19 1 4 3 -2 6 -13 5 -11 0 -14 -3 -6 -6z"/>
<path d="M784 762 c3 -6 -2 -13 -11 -15 -16 -4 -16 -5 -1 -6 21 -1 32 15 17
25 -7 4 -9 3 -5 -4z"/>
<path d="M718 753 c7 -3 16 -2 19 1 4 3 -2 6 -13 5 -11 0 -14 -3 -6 -6z"/>
<path d="M650 740 c0 -6 7 -10 15 -10 8 0 15 2 15 4 0 2 -7 6 -15 10 -8 3 -15
1 -15 -4z"/>
<path d="M990 729 c10 -7 11 -12 4 -15 -16 -7 -2 -69 16 -70 8 -1 21 -2 28 -3
7 0 11 -5 8 -10 -3 -4 4 -17 15 -27 11 -10 20 -14 19 -9 -5 22 1 29 11 15 9
-13 10 -12 5 3 -3 9 -1 17 3 17 5 0 11 -5 13 -11 5 -14 78 17 78 32 0 5 3 8 8
7 4 0 15 2 25 7 10 4 23 2 32 -5 11 -9 15 -9 15 -1 0 6 -14 14 -31 18 -17 3
-28 11 -26 17 4 9 -9 10 -50 2 -51 -9 -54 -11 -48 -35 5 -25 5 -25 -10 -7 -19
25 -19 35 0 42 12 5 10 10 -9 25 -13 10 -28 19 -32 19 -4 0 1 -7 12 -15 17
-13 16 -14 -21 -8 -22 3 -44 10 -49 14 -6 5 -15 9 -20 9 -6 0 -4 -5 4 -11z
m58 -47 c2 -14 -2 -22 -11 -22 -17 0 -30 27 -21 41 9 16 29 4 32 -19z m37 -43
c-10 -15 -25 -10 -19 6 4 8 10 12 15 9 5 -3 7 -10 4 -15z"/>
<path d="M1186 725 c4 -8 10 -12 15 -9 11 6 2 24 -11 24 -5 0 -7 -7 -4 -15z"/>
<path d="M1283 733 c-21 -8 -15 -20 17 -32 18 -6 30 -6 30 0 0 5 -10 9 -21 9
-18 0 -19 2 -9 15 12 15 6 18 -17 8z"/>
<path d="M726 715 c4 -8 8 -15 10 -15 2 0 4 7 4 15 0 8 -4 15 -10 15 -5 0 -7
-7 -4 -15z"/>
<path d="M787 700 c6 -24 26 -26 44 -3 8 10 9 14 2 10 -6 -4 -14 -3 -18 3 -12
19 -33 11 -28 -10z"/>
<path d="M1423 683 c-28 -34 -34 -36 -79 -35 -46 2 -47 1 -24 -11 27 -14 93
-10 84 4 -5 9 4 12 37 12 10 0 15 10 15 33 0 19 -1 34 -2 34 -1 0 -15 -17 -31
-37z"/>
<path d="M690 695 c0 -8 4 -15 9 -15 5 0 11 7 15 15 3 9 0 15 -9 15 -8 0 -15
-7 -15 -15z"/>
<path d="M880 700 c0 -5 -7 -10 -15 -10 -10 0 -14 -8 -11 -22 3 -26 36 -38 36
-14 0 9 8 16 20 16 11 0 20 4 20 9 0 5 6 11 13 14 6 2 3 3 -7 1 -11 -2 -28 1
-38 7 -12 6 -18 6 -18 -1z"/>
<path d="M760 691 c0 -6 5 -13 10 -16 6 -3 10 1 10 9 0 9 -4 16 -10 16 -5 0
-10 -4 -10 -9z"/>
<path d="M1480 654 c-11 -12 -10 -18 3 -32 16 -15 17 -14 17 16 0 36 -2 38
-20 16z"/>
<path d="M651 636 c3 -3 27 -12 53 -20 43 -13 47 -13 44 2 -2 13 -16 18 -53
20 -27 2 -47 1 -44 -2z"/>
<path d="M967 610 c3 -11 9 -20 13 -20 4 0 8 -11 8 -25 0 -25 -21 -34 -33 -15
-5 8 -12 7 -22 -1 -12 -10 -16 -10 -24 2 -5 8 -9 9 -9 3 0 -5 6 -18 13 -27 11
-16 16 -17 55 -3 l42 15 0 -25 c0 -28 -27 -42 -87 -46 -21 -1 -41 -6 -45 -12
-4 -6 -21 -5 -49 3 -63 19 -82 22 -89 12 -3 -5 -21 -12 -40 -15 -27 -6 -32 -5
-20 4 12 9 10 10 -9 5 -13 -4 -31 -8 -40 -10 -21 -3 -18 -56 9 -146 l20 -67
67 -7 c84 -9 727 -9 789 1 57 8 69 26 85 131 11 76 11 84 -6 103 -10 11 -22
17 -26 14 -5 -3 -9 0 -9 6 0 6 -5 8 -11 5 -6 -4 -9 0 -7 10 2 10 -4 20 -12 22
-13 4 -13 3 0 -6 12 -8 12 -11 1 -11 -8 0 -11 -7 -8 -19 3 -12 -1 -22 -9 -25
-11 -4 -13 1 -8 19 6 23 3 25 -29 25 -19 0 -37 -5 -39 -11 -2 -5 -11 -7 -20
-4 -9 4 -15 12 -12 18 3 9 -19 11 -81 9 -74 -3 -85 -1 -85 13 0 11 -5 15 -15
12 -8 -4 -17 -2 -20 2 -6 11 97 24 153 20 23 -2 44 0 48 4 4 4 3 7 -2 8 -53 3
-83 7 -103 13 -16 6 -21 5 -17 -3 6 -10 -4 -13 -44 -13 -3 -1 -18 2 -35 6 -22
5 -26 4 -15 -4 11 -7 1 -10 -38 -10 -34 0 -51 -4 -47 -10 6 -10 -22 -7 -64 6
-8 3 -19 -1 -24 -8 -6 -10 -7 -8 -4 4 6 17 -27 68 -43 68 -4 0 -6 -9 -3 -20z
m79 -102 c4 -7 3 -8 -4 -4 -7 4 -12 2 -12 -5 0 -7 -3 -10 -6 -6 -6 5 3 27 11
27 2 0 7 -5 11 -12z m75 -17 c22 0 23 1 4 9 -16 7 -17 9 -3 9 9 1 20 -4 23
-10 4 -6 29 -9 61 -7 30 2 54 0 54 -5 0 -5 6 -4 14 2 8 7 25 9 40 5 15 -3 26
-2 26 4 0 6 9 6 24 -1 26 -12 25 -32 -1 -23 -8 4 -35 -1 -60 -9 -37 -13 -56
-13 -108 -4 -35 6 -89 9 -119 7 l-54 -3 26 27 c23 23 29 25 38 13 6 -8 22 -15
35 -14z m289 -21 c0 -5 -5 -10 -11 -10 -5 0 -7 5 -4 10 3 6 8 10 11 10 2 0 4
-4 4 -10z m-45 -10 c3 -5 2 -10 -4 -10 -5 0 -13 5 -16 10 -3 6 -2 10 4 10 5 0
13 -4 16 -10z"/>
<path d="M870 608 c0 -25 16 -37 38 -31 29 7 28 21 -4 33 -32 13 -34 13 -34
-2z"/>
<path d="M793 586 c-9 -11 -7 -15 13 -19 27 -5 26 -5 18 17 -7 19 -15 20 -31
2z"/>
<path d="M740 580 c0 -5 5 -10 10 -10 6 0 10 5 10 10 0 6 -4 10 -10 10 -5 0
-10 -4 -10 -10z"/>
<path d="M830 521 c-42 -6 -43 -7 -20 -17 27 -12 100 -7 100 6 0 7 -29 23 -33
18 -1 0 -22 -4 -47 -7z"/>
<path d="M702 505 c-11 -13 -9 -15 8 -15 11 0 20 7 20 15 0 19 -11 19 -28 0z"/>
</g>
</svg>
